<svg xmlns="http://www.w3.org/2000/svg" width="282" height="333" viewBox="0 0 282 333"><path d="M20.04 284.756h53.3v-99.73c-30.2 23.48-50.44 59.2-53.3 99.73zM23.183 88.757c0 30.524 21.486 56.02 50.156 62.216V26.54C44.67 32.74 23.182 58.233 23.182 88.758zM87.065 25.076c-.73 0-1.45.03-2.172.055v127.224c.723.024 1.443.055 2.172.055 17.81 0 33.904-7.322 45.46-19.11V44.185c-11.555-11.788-27.65-19.11-45.46-19.11zM113.368 163.416l.005.012c-10.072 3.467-19.608 8.08-28.48 13.656v107.658h47.632V153.537c-5.86 4.116-12.298 7.465-19.175 9.885l.018-.006zM143.646 60v57.515c4.384-8.64 6.87-18.406 6.87-28.758S148.03 68.64 143.646 60z"/><path d="M143.646 25.09v8.537c13.84 14.253 22.37 33.692 22.37 55.13s-8.528 40.873-22.37 55.124v140.876h49.63V25.09h-49.63zM204.615 26.214v258.542h51.9v-196c.002-31.137-22.364-57.02-51.9-62.542zM132.265 25.09h-6.016v1.725c2.127 1.545 4.132 3.24 5.986 5.083v.055h.028V25.09z"/></svg>